<svg width="41" height="18" viewBox="0 0 41 18" fill="none" xmlns="http://www.w3.org/2000/svg">
<path d="M0.798118 14H8.46857V12.5938H2.38335V0.909091H0.798118V14ZM14.7072 14.2045C17.3663 14.2045 19.1561 12.1847 19.1561 9.14205C19.1561 6.07386 17.3663 4.05398 14.7072 4.05398C12.0481 4.05398 10.2583 6.07386 10.2583 9.14205C10.2583 12.1847 12.0481 14.2045 14.7072 14.2045ZM14.7072 12.8494C12.6873 12.8494 11.7669 11.1108 11.7669 9.14205C11.7669 7.1733 12.6873 5.40909 14.7072 5.40909C16.7271 5.40909 17.6476 7.1733 17.6476 9.14205C17.6476 11.1108 16.7271 12.8494 14.7072 12.8494ZM25.4219 17.8864C27.7741 17.8864 29.6662 16.8125 29.6662 14.2812V4.18182H28.2088V5.74148H28.0554C27.723 5.23011 27.1094 4.05398 25.1918 4.05398C22.7116 4.05398 20.9986 6.02273 20.9986 9.03977C20.9986 12.108 22.7884 13.8466 25.1662 13.8466C27.0838 13.8466 27.6974 12.7216 28.0298 12.1847H28.1577V14.179C28.1577 15.8153 27.0071 16.5568 25.4219 16.5568C23.6385 16.5568 23.0121 15.6172 22.6094 15.0739L21.4077 15.9176C22.0213 16.9467 23.2294 17.8864 25.4219 17.8864ZM25.3707 12.4915C23.4787 12.4915 22.5071 11.0597 22.5071 9.0142C22.5071 7.01989 23.4531 5.40909 25.3707 5.40909C27.2116 5.40909 28.1832 6.89205 28.1832 9.0142C28.1832 11.1875 27.1861 12.4915 25.3707 12.4915ZM36.4162 14.2045C39.0753 14.2045 40.8651 12.1847 40.8651 9.14205C40.8651 6.07386 39.0753 4.05398 36.4162 4.05398C33.7571 4.05398 31.9673 6.07386 31.9673 9.14205C31.9673 12.1847 33.7571 14.2045 36.4162 14.2045ZM36.4162 12.8494C34.3963 12.8494 33.4759 11.1108 33.4759 9.14205C33.4759 7.1733 34.3963 5.40909 36.4162 5.40909C38.4361 5.40909 39.3565 7.1733 39.3565 9.14205C39.3565 11.1108 38.4361 12.8494 36.4162 12.8494Z" fill="#222222"/>
</svg>
